# xmcd CD Database Entry
#
# Track frame offsets:
# 182
# 19650
# 47885
# 71830
# 91425
# 115227
# 145370
# 168047
# 188007
# 214420
# 238215
# 256857
# 276235
# 295290
#
# Disc length: 4235 seconds
#
# Revision: 1
# Processed by: cddbd v1.4PL0 Copyright (c) Steve Scherf et al.
# Submitted via: tcd 2.0b
#
DISCID=d710890e
DTITLE=Neþinomas - Neþinomas
DYEAR=1900
DGENRE=
TTITLE0=Takelis 1
TTITLE1=Takelis 2
TTITLE2=Takelis 3
TTITLE3=Takelis 4
TTITLE4=Takelis 5
TTITLE5=Takelis 6
TTITLE6=Takelis 7
TTITLE7=Takelis 8
TTITLE8=Takelis 9
TTITLE9=Takelis 10
TTITLE10=Takelis 11
TTITLE11=Takelis 12
TTITLE12=Takelis 13
TTITLE13=Takelis 14
EXTD=
EXTT0=
EXTT1=
EXTT2=
EXTT3=
EXTT4=
EXTT5=
EXTT6=
EXTT7=
EXTT8=
EXTT9=
EXTT10=
EXTT11=
EXTT12=
EXTT13=
PLAYORDER=
